<mxfile host="app.diagrams.net" modified="2023-05-01T05:41:32.568Z" agent="Mozilla/5.0 (Windows NT 10.0; Win64; x64) AppleWebKit/537.36 (KHTML, like Gecko) Chrome/112.0.0.0 Safari/537.36" version="21.2.3" etag="HYHie0m85T9ifmqp4z9B" type="github">
  <diagram name="第 1 页" id="0BNgxEhKhnFLAnsqB1f5">
    <mxGraphModel>
      <root>
        <mxCell id="0" />
        <mxCell id="1" parent="0" />
      </root>
    </mxGraphModel>
  </diagram>
</mxfile>
